Simulation
nRows=19
nColumns=15
endheader
time  TH_x TH_y TH_z SC_y  SC_z  SC_x  AC_y  AC_z  AC_x  GH_y  GH_z  GH_yy  EL_x  PS_y
1.4450000000000003  0.000000  0.000000  0.000000  -77.10785667816465  13.919099619512593  22.028188739554686  53.988828782348904  48.38944388585957  39.10384087637695  88.94699107829236  58.229315786943026  -60.7880630067134  22.38674784510826  120.000000
1.4739000000000002  0.000000  0.000000  0.000000  -61.96734796735167  33.972525366359726  30.085804204326315  35.49963752673228  47.31311404758043  62.8746972753783  121.78507637113749  47.02347285195025  -115.30696935199941  12.449865054585317  120.000000
1.5028000000000004  0.000000  0.000000  0.000000  -42.205147995992206  35.95397532106602  -5.137304882782143  48.49605386551478  8.28197255644808  69.98034209929956  139.16378647804848  33.81387356543507  -169.6574188011412  14.735154332894192  120.000000
1.5317000000000003  0.000000  0.000000  0.000000  -41.16091027694586  32.468219931524345  -25.0437497916657  52.464690884551956  -1.0504682798525824  71.69756973133207  178.3125663885011  38.594449182628246  105.2860219153689  19.89461613716151  120.000000
1.5606000000000002  0.000000  0.000000  0.000000  -41.910203731197804  34.2568275843014  -16.268239153291972  51.556413948827604  8.201160496252612  73.01795588853497  -162.78878862119953  52.69200229264059  51.87683449970963  20.58689197875493  120.000000
1.5895000000000004  0.000000  0.000000  0.000000  -42.02302912477675  34.30923862468791  -4.2893718331102315  57.76705846062078  -3.3135740548304153  71.68266553221325  -134.38673223517765  68.61177297503319  18.309891071108154  15.65017995828757  120.000000
1.6184000000000003  0.000000  0.000000  0.000000  -47.68721415267065  39.46036622227242  10.454773996632769  50.71423259043181  -16.891860960398763  58.01302669329114  -115.34988411571105  81.68120153401975  -1.2169949507698412  9.858369855475638  120.000000
1.6473000000000002  0.000000  0.000000  0.000000  -52.7293033437279  39.11153630491002  21.065718783613278  47.74306439765559  -23.4160926457238  49.84754695646493  -100.37846189618634  94.27727782443321  -16.471709521907375  8.995939312736889  120.000000
1.6762000000000004  0.000000  0.000000  0.000000  -48.55251566523585  38.56116192089519  20.717075492864424  51.525517210983885  -23.720568518798167  53.43942103496621  -93.89045642928464  106.2691964106418  -28.02267143259957  9.879134758511602  120.000000
1.7051000000000003  0.000000  0.000000  0.000000  -42.96531376717109  37.02983399475175  18.165332097986205  55.20293505778786  -18.824521992410173  60.08247207005261  -92.80794768269841  118.15963808453834  -33.4024551978221  13.628871715122703  120.000000
1.7340000000000004  0.000000  0.000000  0.000000  -39.98839346728245  33.575871843566894  14.891992407043483  59.663598403013644  -12.078996885695902  66.26647941372731  -89.4162378344848  128.17656855984953  -31.632768606147746  18.4387755809032  120.000000
1.7629000000000004  0.000000  0.000000  0.000000  -39.03093357026385  33.36192335398674  14.076470046984012  63.572230231879665  -6.090356702752486  73.62417600242823  -84.06676220159413  133.84205520249444  -24.573594046147704  22.599489000883477  120.000000
1.7918000000000003  0.000000  0.000000  0.000000  -43.972823556297435  37.39667685731967  22.457368199766552  67.46064940909655  -4.324028666494982  76.99151449932442  -74.26828948663156  128.32272871905948  -14.011865048788703  23.599221826253135  120.000000
1.8207000000000004  0.000000  0.000000  0.000000  -53.05126613320308  43.51475368676688  24.94085978985377  64.66303341409676  -13.137197546830286  78.68554733822447  -51.031793472473154  112.40906749907323  2.9609572005886227  25.361970117663887  120.000000
1.8496000000000004  0.000000  0.000000  0.000000  -54.98036669100613  44.8082510452081  13.967084595017347  55.97607281604998  -11.350423616261242  58.08901268845831  -30.219862826171404  87.54806087122333  9.384203274046758  25.627751537279  120.000000
1.8785000000000003  0.000000  0.000000  0.000000  -51.52306918200385  26.81882928557823  7.549161370723866  63.882982307516535  10.063211011541043  7.320003466705693  -17.345951965211484  72.67653081333263  2.5816960178757578  20.18517731123401  120.000000
1.9074000000000004  0.000000  0.000000  0.000000  -44.560473955316944  3.133056474943642  3.8757710675626886  66.31580115510495  19.32783230733431  -21.763067328160325  -4.235008047187809  77.42917619774855  -9.872767019189045  19.810995132114368  120.000000
1.9363000000000004  0.000000  0.000000  0.000000  -36.76228888433037  -10.378844140220925  -3.0967810343943456  49.74395546980513  19.974875913524638  -9.892447010118754  5.960119866621728  88.99168351515429  -22.27914202634412  21.329368153664486  120.000000
1.9652000000000003  0.000000  0.000000  0.000000  -33.40147301659475  -14.902097117610301  -16.794880441894456  41.9987943781009  16.048911679341124  1.5513922100122508  10.776280018717054  96.19152003958362  -32.028865253812604  19.462013807505137  120.000000
